<?xml version="1.0" standalone="no"?>
<!DOCTYPE svg PUBLIC "-//W3C//DTD SVG 20010904//EN"
 "http://www.w3.org/TR/2001/REC-SVG-20010904/DTD/svg10.dtd">
<svg version="1.0" xmlns="http://www.w3.org/2000/svg"
 width="1200.000000pt" height="1200.000000pt" viewBox="0 0 1200.000000 1200.000000"
 preserveAspectRatio="xMidYMid meet">
<metadata>
Created by potrace 1.11, written by Peter Selinger 2001-2013
</metadata>
<g transform="translate(0.000000,1200.000000) scale(0.100000,-0.100000)"
fill="#000000" stroke="none">
<path d="M5825 9261 c-4 -3 -120 -12 -197 -14 -21 -1 -38 -4 -38 -7 0 -3 -12
-6 -27 -6 -16 -1 -46 -5 -68 -8 -22 -4 -53 -9 -70 -12 -16 -2 -43 -7 -60 -11
-16 -3 -39 -7 -50 -9 -11 -1 -20 -3 -20 -4 0 -2 -18 -6 -55 -14 -14 -3 -59
-15 -100 -26 -41 -12 -79 -22 -85 -23 -5 -1 -16 -6 -22 -10 -7 -5 -13 -6 -13
-3 0 3 -16 -2 -35 -10 -19 -8 -35 -12 -35 -9 0 3 -11 -2 -25 -11 -13 -8 -29
-13 -35 -9 -5 3 -10 2 -10 -3 0 -6 -16 -13 -35 -16 -19 -4 -35 -11 -35 -16 0
-6 -3 -9 -7 -9 -5 1 -11 0 -15 -1 -5 -1 -11 -3 -15 -5 -18 -5 -52 -19 -103
-43 -30 -15 -57 -27 -60 -27 -15 -3 -149 -71 -169 -86 -13 -11 -27 -16 -32
-13 -5 3 -9 0 -9 -6 0 -6 -4 -8 -10 -5 -5 3 -10 2 -10 -3 0 -6 -18 -19 -40
-30 -22 -10 -36 -23 -32 -27 4 -4 0 -6 -8 -3 -8 2 -23 -3 -32 -12 -10 -9 -31
-23 -46 -31 -15 -8 -29 -16 -32 -19 -13 -15 -142 -100 -151 -100 -6 0 -8 -4
-4 -9 3 -5 -4 -12 -15 -16 -11 -3 -20 -11 -20 -17 0 -6 -3 -9 -6 -6 -3 3 -15
-4 -28 -16 -12 -11 -37 -32 -55 -46 -18 -14 -69 -59 -113 -100 -44 -41 -84
-74 -89 -72 -5 1 -9 -3 -9 -9 0 -5 -20 -30 -45 -55 -25 -24 -43 -44 -41 -44 2
0 -17 -22 -43 -49 -60 -64 -101 -112 -126 -147 -11 -15 -29 -36 -39 -46 -11
-10 -16 -18 -12 -18 4 0 1 -6 -6 -13 -7 -8 -22 -26 -33 -41 -11 -16 -35 -48
-53 -72 -18 -24 -30 -44 -27 -44 3 0 -3 -10 -15 -22 -11 -12 -20 -28 -20 -35
0 -7 -4 -13 -8 -13 -5 0 -19 -20 -31 -45 -12 -24 -26 -47 -32 -50 -5 -4 -7
-11 -4 -16 4 -5 2 -9 -3 -9 -7 0 -42 -63 -45 -80 0 -3 -7 -11 -14 -18 -7 -8
-11 -17 -8 -22 3 -5 1 -10 -4 -12 -5 -1 -11 -10 -13 -18 -2 -8 -9 -21 -16 -28
-7 -8 -10 -17 -7 -22 3 -4 -2 -13 -10 -20 -8 -7 -12 -16 -9 -21 3 -5 0 -9 -5
-9 -6 0 -11 -9 -11 -20 0 -11 -4 -20 -8 -20 -5 0 -9 -6 -9 -12 0 -7 -12 -39
-26 -71 -15 -32 -27 -61 -27 -66 0 -5 -9 -30 -19 -57 -28 -70 -34 -87 -37
-102 -1 -8 -6 -21 -10 -30 -4 -9 -8 -23 -10 -31 -1 -8 -6 -26 -10 -40 -4 -14
-8 -29 -8 -33 -1 -3 -4 -9 -8 -13 -4 -4 -4 -13 -1 -21 3 -8 1 -14 -4 -14 -5 0
-10 -6 -10 -12 0 -7 -8 -49 -18 -93 -11 -44 -19 -88 -18 -97 0 -10 -2 -18 -6
-18 -3 0 -7 -10 -8 -22 0 -13 -4 -45 -8 -73 -4 -27 -7 -62 -8 -77 0 -16 -3
-28 -7 -28 -3 0 -6 -15 -6 -32 -1 -18 -5 -71 -9 -118 -11 -116 -12 -410 -2
-410 4 0 3 -9 -3 -20 -6 -11 -7 -20 -2 -20 4 0 7 -21 7 -47 -1 -27 1 -52 3
-56 2 -5 6 -30 8 -55 1 -26 6 -67 10 -92 3 -25 8 -56 9 -70 1 -14 3 -25 4 -25
3 0 13 -66 14 -92 1 -13 4 -23 7 -23 3 0 7 -10 8 -22 4 -40 8 -57 14 -64 4 -3
4 -12 1 -20 -3 -8 0 -14 6 -14 6 0 8 -7 5 -15 -4 -8 -2 -21 4 -28 6 -6 11 -16
11 -22 1 -21 25 -111 38 -142 7 -18 11 -33 8 -33 -3 0 2 -11 11 -25 9 -14 13
-25 9 -25 -4 0 -2 -7 5 -15 7 -8 9 -15 5 -15 -4 0 -2 -7 5 -15 6 -8 9 -19 5
-25 -3 -5 -2 -10 3 -10 6 0 13 -16 16 -35 4 -19 11 -35 16 -35 6 0 9 -3 9 -7
-1 -5 0 -11 1 -15 1 -5 3 -11 5 -15 1 -5 11 -30 23 -56 12 -27 22 -53 22 -58
0 -5 4 -9 10 -9 5 0 9 -3 8 -7 -3 -11 44 -107 54 -111 5 -2 6 -7 3 -12 -3 -5
0 -14 7 -22 7 -7 26 -38 41 -68 43 -84 113 -193 190 -297 26 -35 47 -66 47
-69 0 -3 6 -11 12 -19 7 -7 24 -27 38 -45 27 -35 86 -103 138 -159 17 -19 32
-39 32 -43 0 -4 7 -8 15 -8 8 0 14 -3 13 -8 -3 -6 139 -152 147 -152 2 0 24
-19 48 -42 55 -52 87 -79 87 -74 0 3 13 -8 28 -22 35 -33 71 -62 77 -62 3 0
13 -8 24 -17 10 -10 49 -38 86 -63 36 -25 75 -53 86 -62 10 -10 20 -18 22 -17
8 2 45 -18 61 -33 10 -9 22 -15 26 -13 5 3 11 -2 14 -11 3 -8 10 -12 16 -9 5
3 10 3 10 -2 0 -4 10 -13 23 -19 12 -6 81 -41 153 -77 72 -36 143 -69 158 -73
14 -3 26 -11 26 -17 0 -6 3 -8 6 -4 3 3 35 -8 70 -23 35 -16 64 -26 64 -23 0
4 5 2 12 -5 7 -7 22 -12 34 -12 13 0 26 -5 29 -10 4 -6 11 -8 16 -5 5 4 9 2 9
-3 0 -5 6 -9 13 -10 29 -2 72 -14 84 -23 7 -6 17 -8 22 -5 5 4 12 2 16 -4 4
-6 10 -8 15 -5 5 3 11 1 15 -4 3 -5 14 -8 25 -6 11 2 22 -1 25 -6 4 -5 10 -7
15 -4 5 3 11 1 15 -5 3 -5 21 -10 39 -10 18 0 36 -3 39 -7 4 -3 17 -8 29 -9
33 -5 70 -12 93 -17 12 -3 48 -9 80 -13 62 -8 73 -10 78 -13 2 -3 43 -6 192
-17 212 -15 517 -6 685 22 83 13 97 15 130 19 19 2 35 4 35 5 0 1 7 3 15 5 38
8 68 15 104 24 22 5 42 9 45 9 3 0 8 1 11 2 3 1 13 3 23 6 21 5 30 7 87 23 25
7 75 23 112 36 36 13 69 21 72 17 3 -3 6 0 6 7 0 6 6 11 13 10 6 -1 28 5 47
14 19 8 38 13 42 11 5 -3 8 0 8 5 0 6 7 11 15 11 8 0 23 4 33 10 21 11 155 73
162 74 3 1 11 5 18 9 6 5 12 5 12 0 0 -4 4 -3 8 3 8 13 153 89 165 86 4 -1 7
2 7 7 0 5 20 20 45 32 25 12 45 26 45 31 0 4 9 8 20 8 11 0 20 4 20 8 0 5 10
13 23 19 29 14 249 175 318 233 125 106 279 255 279 271 0 5 7 9 15 9 8 0 15
7 15 16 0 8 5 12 10 9 6 -3 10 -1 10 5 0 15 26 41 34 33 3 -4 6 0 6 8 0 8 15
30 33 50 48 54 70 80 97 119 13 19 29 40 35 46 5 6 17 22 25 34 8 13 26 36 38
51 13 16 20 29 15 29 -4 0 -3 4 2 8 15 11 55 70 55 81 0 5 4 11 8 13 10 4 82
125 82 139 0 5 5 9 11 9 5 0 7 5 4 10 -3 6 -2 10 2 10 5 0 15 16 22 35 7 19
17 35 22 35 6 0 8 4 4 9 -3 5 2 17 11 25 8 9 13 16 9 16 -3 0 0 10 7 23 6 12
13 29 14 37 2 8 8 16 13 18 6 2 11 7 11 12 0 5 5 21 12 37 6 15 12 30 13 33 0
3 6 15 13 26 6 12 8 24 5 28 -3 3 0 6 7 6 7 0 10 3 7 7 -4 3 -3 11 2 17 11 14
46 118 43 129 -1 4 3 7 8 7 5 0 9 3 8 8 -2 9 29 119 42 147 5 11 12 37 15 59
3 21 8 43 12 50 4 6 8 16 8 21 1 6 4 21 8 35 9 33 18 90 20 118 0 12 4 22 8
22 4 0 7 10 8 23 0 25 6 72 16 132 23 138 40 541 24 551 -4 2 -4 18 1 34 5 19
5 32 -2 36 -6 4 -5 10 3 15 8 5 10 9 4 9 -5 0 -11 24 -12 53 -2 69 -9 123 -17
136 -4 6 -2 11 5 11 8 0 8 4 2 13 -6 6 -9 22 -8 35 1 12 -1 22 -4 22 -3 0 -7
12 -7 28 -2 31 -11 87 -14 87 -1 0 -3 14 -5 30 -1 17 -3 30 -4 30 -4 0 -11 39
-13 68 0 15 -4 27 -7 27 -4 0 -8 8 -9 18 -2 21 -10 57 -12 57 -1 0 -4 11 -7
25 -6 30 -8 40 -15 60 -7 18 -33 103 -34 110 0 3 -4 13 -8 22 -4 9 -9 22 -10
30 -1 7 -8 23 -14 36 -7 12 -10 22 -6 22 3 0 1 6 -5 13 -6 8 -8 17 -4 20 3 4
0 7 -7 7 -7 0 -11 3 -7 6 3 4 -1 20 -9 36 -9 17 -17 39 -20 51 -2 11 -7 23
-11 26 -5 3 -10 15 -11 26 -2 11 -8 22 -13 23 -5 2 -9 9 -9 15 0 12 -100 218
-111 227 -3 3 -12 20 -20 38 -8 17 -17 32 -21 32 -5 0 -8 7 -8 15 0 8 -5 15
-11 15 -5 0 -8 4 -4 9 3 6 -3 14 -12 20 -10 6 -14 11 -10 11 4 0 -3 15 -17 33
-15 19 -26 39 -26 45 0 6 -3 12 -7 14 -5 2 -21 23 -38 48 -16 25 -40 56 -52
70 -13 14 -23 30 -23 37 0 6 -3 13 -7 15 -5 2 -28 28 -53 58 -25 30 -48 57
-52 58 -5 2 -8 8 -8 12 0 17 -255 280 -271 280 -6 0 -7 5 -4 10 3 6 1 10 -4
10 -6 0 -26 15 -44 33 -19 17 -48 43 -66 57 -18 14 -45 36 -61 50 -45 40 -70
60 -75 60 -4 0 -127 88 -152 110 -7 5 -16 10 -21 10 -4 0 -17 8 -28 18 -11 9
-37 26 -59 37 -21 11 -43 25 -49 30 -6 6 -42 26 -81 45 -38 19 -71 38 -73 43
-2 4 -10 7 -18 7 -8 0 -14 4 -14 8 0 4 -10 9 -22 9 -13 1 -24 7 -26 13 -2 5
-12 10 -23 10 -10 0 -19 4 -19 8 0 4 -24 16 -52 27 -29 10 -57 21 -63 25 -16
11 -159 65 -167 62 -5 -1 -8 2 -8 6 0 4 -12 9 -27 10 -15 1 -29 5 -32 10 -6 6
-19 11 -46 16 -5 1 -16 5 -22 9 -7 5 -13 5 -13 1 0 -3 -7 -1 -15 6 -8 7 -15
10 -15 6 0 -3 -11 -1 -25 4 -25 10 -61 18 -100 25 -11 2 -21 4 -22 5 -2 2 -7
4 -13 5 -5 1 -11 4 -12 5 -2 1 -14 4 -28 6 -14 1 -59 10 -100 19 -72 16 -130
25 -177 28 -13 0 -23 3 -23 7 0 3 -21 6 -48 6 -76 2 -148 10 -160 18 -7 4 -12
3 -12 -3 0 -6 -11 -6 -30 -1 -21 6 -28 5 -24 -2 5 -7 2 -8 -7 -2 -13 8 -306
13 -314 5z"/>
</g>
</svg>
